<svg id="Layer_1" data-name="Layer 1" xmlns="http://www.w3.org/2000/svg" viewBox="0 0 147.27 123.74"><defs><style>.cls-1,.cls-2,.cls-3{fill:#054635;}.cls-1,.cls-2{stroke:#f99c27;stroke-miterlimit:10;}.cls-1{stroke-width:0.75px;}.cls-2{stroke-width:0.25px;}</style></defs><path class="cls-1" d="M258.75,140.15c2.38,2.74,4.83,5.35,7,8.14A57.44,57.44,0,0,1,275.5,166c3.07,9.31,2.39,18.41-1.39,27.36a65.76,65.76,0,0,1-12.92,19.36c-.18.2-.39.38-.74.71.42-2.64.82-5.07,1.18-7.51,1.07-7.3,1.68-14.59-.07-21.88a23.11,23.11,0,0,0-4-8.51,1.45,1.45,0,0,1-.3-1.52,3.26,3.26,0,0,0-1.49-3.85,3.39,3.39,0,0,0-4.62,4.65,3.29,3.29,0,0,0,3.87,1.47c.78-.29,1.06,0,1.45.52a25.57,25.57,0,0,1,4.4,13.25c.47,5.88-.26,11.69-1.15,17.48-.38,2.48-.82,5-1.28,7.69-.88-.86-1.68-1.57-2.42-2.35a65.87,65.87,0,0,1-13.74-20.42c-4.26-10.37-3.93-20.62.67-30.81a67.46,67.46,0,0,1,14.73-20.53C258,140.83,258.25,140.59,258.75,140.15Z" transform="translate(-184.46 -139.62)"/><path class="cls-1" d="M251,218.47c-2.35-.67-4.46-1.26-6.56-1.88-6.31-1.87-12.54-3.9-18.18-7.41a23.85,23.85,0,0,1-9.69-10.58,1.3,1.3,0,0,1,.09-1.45,3.27,3.27,0,0,0-.47-4.19,3.4,3.4,0,0,0-4-.53,3.34,3.34,0,0,0-1.61,3.71,3.27,3.27,0,0,0,3.33,2.58c.48,0,.93-.12,1.21.53,2.31,5.34,6.37,9,11.29,11.92,5.65,3.31,11.82,5.31,18.06,7.14l5.19,1.5,0,.34c-3.38.72-6.74,1.56-10.15,2.13a61.69,61.69,0,0,1-13.58.72c-11.91-.63-21.59-5.52-28.9-14.95a66.21,66.21,0,0,1-11.46-23.46c-.08-.28-.12-.56-.22-1.05,2.36-.6,4.7-1.29,7.07-1.8a63.72,63.72,0,0,1,16.29-1.52c9.39.43,18,3,25.22,9.37a50.59,50.59,0,0,1,12.23,16.48c1.72,3.68,3.06,7.54,4.56,11.33C250.78,217.65,250.81,217.93,251,218.47Z" transform="translate(-184.46 -139.62)"/><path class="cls-1" d="M267.52,219.56c1-3,1.74-5.92,2.77-8.74a58.74,58.74,0,0,1,9.4-17.07,36.53,36.53,0,0,1,21.66-13.14,60.33,60.33,0,0,1,22.65-.06c2.4.41,4.77,1,7.28,1.48-.39,1.57-.71,3-1.1,4.36a66.09,66.09,0,0,1-9.72,20.7,37.93,37.93,0,0,1-26.09,16,67.15,67.15,0,0,1-26.29-1.45c-.06,0-.1-.07-.3-.22,1.78-.94,3.45-1.91,5.2-2.74,7.12-3.35,14.29-6.61,21.4-10a63,63,0,0,0,11.64-7c.53-.41.85-.23,1.31,0a3.36,3.36,0,0,0,4.5-1.62,3.4,3.4,0,0,0-1.65-4.5,3.32,3.32,0,0,0-4.42,1.6,3.28,3.28,0,0,0-.3,1.84,1.55,1.55,0,0,1-.84,1.72c-5.33,3.91-11.25,6.73-17.21,9.51-6.45,3-12.88,6.12-19.31,9.18A4.71,4.71,0,0,1,267.52,219.56Z" transform="translate(-184.46 -139.62)"/><path class="cls-2" d="M213.23,225.21l2.54,2.27a17.25,17.25,0,0,0,7.94,4.34,12.14,12.14,0,0,0,6.57-.51,37.27,37.27,0,0,0,3.55-1.83c.82-.39,2-.43,2.46-1a3.57,3.57,0,0,1,1.52-1.06c3.64-1.79,7.49-2.06,11.47-1.8a21.22,21.22,0,0,1,7,2c2.2.94,4.29,2.14,6.47,3.14a15.46,15.46,0,0,0,7.35,1.28c2.36-.13,4.42-1.26,6.49-2.25,3.53-1.69,7.16-3.21,11.08-3.37a16.48,16.48,0,0,1,10.75,3.14,54,54,0,0,1,5.28,4.88,5.26,5.26,0,0,1,.75,1.52l-.24.15c-1.24-1.13-2.49-2.25-3.7-3.41a27,27,0,0,0-5.53-3.87c-2-1.12-4.11-1-6.15-1.36-1.2-.23-2.62.49-3.9.93-2.13.74-4.25,1.54-6.33,2.4-1.88.77-3.66,1.81-5.58,2.45a11.5,11.5,0,0,1-6.05.19c-3.56-.76-6.75-2.51-9.94-4.19a20.79,20.79,0,0,0-8.39-2.31,23.71,23.71,0,0,0-8.32,1.28c-.58.17-1.16.4-1.8.62-.42-.87-1-.38-1.87.06l1.43.27a62.35,62.35,0,0,1-6.17,3.4,14.19,14.19,0,0,1-13.23-1.26,20,20,0,0,1-5.83-5.58Z" transform="translate(-184.46 -139.62)"/><path class="cls-2" d="M236.22,235.45l-.47-.87a46.11,46.11,0,0,1,5.36-1.87,22.09,22.09,0,0,1,14.41,1.44c2.25,1.06,4.42,2.26,6.7,3.24a13.49,13.49,0,0,0,9.83.69c2.14-.72,4.12-1.9,6.22-2.73,4.09-1.61,8.22-3,12.75-2a19.1,19.1,0,0,1,10.87,6.42c.5.59,1.05,1.14,1.5,1.76a1.71,1.71,0,0,1,.24,1.24c-1.4-1.31-2.78-2.65-4.21-3.92a23.86,23.86,0,0,0-5-3.39,14,14,0,0,0-5.58-1.2,14.52,14.52,0,0,0-5.79,1.21c-1.66.59-3.32,1.2-4.94,1.9-1.19.52-2.28,1.26-3.47,1.79a13.18,13.18,0,0,1-7.95,1,38.38,38.38,0,0,1-6.9-2.59c-1.58-.66-3.1-1.46-4.62-2.25-3.61-1.87-7.47-2-11.36-1.45a53.87,53.87,0,0,0-6,1.53c-.44-.94-1.06,0-1.63.08Z" transform="translate(-184.46 -139.62)"/><path class="cls-2" d="M236.2,235.43l1,.47c-1.46.86-2.9,1.75-4.39,2.54a23.93,23.93,0,0,1-2.42.87,5.56,5.56,0,0,0-.94.54c-.14.08-.27.3-.38.29-1.2-.12-2.38.33-3.6-.06a14.06,14.06,0,0,0-2.7-.39,12.34,12.34,0,0,1-7.3-3.86c-1-1-1.93-2-2.88-3.07a.87.87,0,0,1-.1-.75,7.38,7.38,0,0,1,1.07.6,29.66,29.66,0,0,1,2.3,2,16.18,16.18,0,0,0,5,3.17,11.7,11.7,0,0,0,8.87.2,27.26,27.26,0,0,0,3.48-1.79,16.21,16.21,0,0,1,2-.91c.29-.09.66.09,1,.15Z" transform="translate(-184.46 -139.62)"/><path class="cls-3" d="M187.63,257.81l-2,5.32h-1.21l5.66-15.4h1.41l5.89,15.4h-1.29l-2-5.32Zm6.1-1.1c-1.72-4.58-2.6-6.78-2.91-7.81h0c-.37,1.16-1.36,3.89-2.75,7.81Z" transform="translate(-184.46 -139.62)"/><path class="cls-3" d="M213.73,263.13h-1a10.91,10.91,0,0,1-.16-2.46c-.55,1.05-1.76,2.64-5,2.64-4.42,0-6.69-3.37-6.69-7.75,0-4.6,2.42-8.05,6.93-8.05,3.32,0,5.52,1.74,6,4.58h-1.19a4.59,4.59,0,0,0-4.86-3.48c-3.85,0-5.61,3-5.61,6.89,0,3.52,1.69,6.71,5.45,6.71s4.93-2.51,4.93-5.92v-.18h-5V255h6.12Z" transform="translate(-184.46 -139.62)"/><path class="cls-3" d="M220.85,255.94v7.19h-1.21v-15.4h5.52c3,0,4.65,1.63,4.65,4.05a3.49,3.49,0,0,1-2.89,3.61c1.59.37,2.65,1.41,2.65,4v.6a10.46,10.46,0,0,0,.19,3.12h-1.21a10.46,10.46,0,0,1-.22-3.21v-.4c0-2.53-.75-3.58-3.69-3.58Zm0-1.1h3.72c2.71,0,4-1,4-3s-1.23-3-3.63-3h-4.05Z" transform="translate(-184.46 -139.62)"/><path class="cls-3" d="M248.33,255.32c0,4.2-2.24,8-7,8-4.33,0-6.86-3.5-6.86-7.92s2.44-7.92,7-7.92C245.71,247.51,248.33,250.83,248.33,255.32Zm-12.58.05c0,3.54,1.95,6.88,5.65,6.88,4,0,5.66-3.25,5.66-6.91s-1.9-6.73-5.62-6.73C237.48,248.61,235.75,251.89,235.75,255.37Z" transform="translate(-184.46 -139.62)"/><path class="cls-3" d="M261.31,247.73h1.19v8c1.23-1.19,5.63-5.33,8.38-8h1.58l-6.9,6.56,7.3,8.84h-1.47l-6.69-8.07L262.5,257v6.14h-1.19Z" transform="translate(-184.46 -139.62)"/><path class="cls-3" d="M278.18,247.73v15.4H277v-15.4Z" transform="translate(-184.46 -139.62)"/><path class="cls-3" d="M285.86,255.94v7.19h-1.21v-15.4h5.52c3,0,4.65,1.63,4.65,4.05a3.49,3.49,0,0,1-2.89,3.61c1.59.37,2.64,1.41,2.64,4v.6a10.41,10.41,0,0,0,.2,3.12h-1.21a10.46,10.46,0,0,1-.22-3.21v-.4c0-2.53-.75-3.58-3.69-3.58Zm0-1.1h3.72c2.71,0,4-1,4-3s-1.23-3-3.63-3h-4.05Z" transform="translate(-184.46 -139.62)"/><path class="cls-3" d="M302.27,257.81l-2,5.32H299.1l5.66-15.4h1.41l5.89,15.4h-1.29l-2-5.32Zm6.1-1.1c-1.72-4.58-2.6-6.78-2.91-7.81h0c-.37,1.16-1.36,3.89-2.75,7.81Z" transform="translate(-184.46 -139.62)"/><path class="cls-3" d="M316.73,263.13v-15.4h1.76c2.39,3.7,8,12.3,9,14h0c-.13-2.22-.11-4.49-.11-7v-7h1.21v15.4H327c-2.29-3.56-8-12.52-9.11-14.21h0c.11,2,.09,4.27.09,7.06v7.15Z" transform="translate(-184.46 -139.62)"/></svg>